<svg width="542" height="98" viewBox="0 0 542 98" fill="none" xmlns="http://www.w3.org/2000/svg">
<path d="M2.21869 48.4563C2.22645 44.019 3.19335 40.074 5.11939 36.6214C7.0455 33.1261 9.7169 30.4214 13.1336 28.5074C16.593 26.5508 20.4987 25.5763 24.8507 25.5839C30.184 25.5932 34.7469 27.0092 38.5393 29.8318C42.3317 32.6544 44.8637 36.4989 46.1352 41.3651L34.1032 41.3441C33.2105 39.4652 31.933 38.0336 30.2707 37.0494C28.6511 36.0652 26.7959 35.5713 24.7053 35.5676C21.3346 35.5617 18.6019 36.7303 16.5071 39.0733C14.4124 41.4163 13.3615 44.5505 13.3547 48.4758C13.3478 52.4011 14.3877 55.539 16.4742 57.8893C18.5608 60.2396 21.2894 61.4177 24.6601 61.4236C26.7507 61.4272 28.6076 60.9398 30.2306 59.9613C31.8963 58.9829 33.1788 57.5558 34.0781 55.68L46.1101 55.7011C44.8216 60.5628 42.2762 64.3984 38.474 67.2078C34.6718 69.9744 30.104 71.3531 24.7707 71.3438C20.4187 71.3362 16.5164 70.3694 13.0638 68.4433C9.65386 66.4747 6.99194 63.7607 5.07798 60.3013C3.16403 56.842 2.21093 52.8937 2.21869 48.4563ZM59.6381 31.6607C57.7181 31.6573 56.1405 31.0999 54.9051 29.9884C53.7124 28.8343 53.1175 27.4253 53.1204 25.7613C53.1234 24.0546 53.7232 22.6477 54.9198 21.5404C56.1592 20.3906 57.7388 19.8174 59.6588 19.8207C61.5362 19.824 63.0712 20.4027 64.2638 21.5568C65.4992 22.6683 66.1154 24.0773 66.1124 25.784C66.1095 27.448 65.4884 28.8549 64.249 30.0048C63.0524 31.112 61.5155 31.664 59.6381 31.6607ZM65.0716 35.3822L65.0092 71.0942L54.0652 71.075L54.1277 35.3631L65.0716 35.3822ZM96.0433 35.0524C100.225 35.0597 103.55 36.4308 106.02 39.1658C108.533 41.8582 109.785 45.5724 109.777 50.3084L109.74 71.1724L98.8602 71.1533L98.8941 51.7614C98.8982 49.372 98.2828 47.515 97.0478 46.1901C95.8128 44.8653 94.1499 44.2011 92.0593 44.1974C89.9686 44.1938 88.3035 44.8522 87.0638 46.1727C85.8242 47.4932 85.2023 49.3481 85.1981 51.7374L85.1642 71.1294L74.2202 71.1103L74.2826 35.3983L85.2266 35.4174L85.2183 40.1534C86.3304 38.5767 87.8259 37.342 89.7048 36.4493C91.5838 35.5139 93.6966 35.0483 96.0433 35.0524ZM152.321 52.8148C152.32 53.8388 152.254 54.9053 152.124 56.0144L127.356 55.9711C127.523 58.1901 128.224 59.898 129.459 61.0948C130.737 62.2491 132.293 62.8278 134.128 62.831C136.858 62.8358 138.759 61.6871 139.83 59.385L151.478 59.4053C150.876 61.7509 149.785 63.861 148.203 65.7356C146.663 67.6103 144.72 69.0789 142.371 70.1414C140.022 71.204 137.398 71.7327 134.496 71.7277C130.998 71.7215 127.884 70.9694 125.156 69.4713C122.428 67.9732 120.298 65.8362 118.767 63.0601C117.236 60.2841 116.474 57.0401 116.48 53.3281C116.487 49.6161 117.239 46.3748 118.737 43.6041C120.278 40.8334 122.415 38.7038 125.149 37.2153C127.882 35.7267 131.019 34.9855 134.56 34.9917C138.016 34.9977 141.087 35.7285 143.773 37.1838C146.458 38.6392 148.545 40.7122 150.034 43.4028C151.565 46.0935 152.328 49.2308 152.321 52.8148ZM141.126 49.9152C141.13 48.0379 140.492 46.5434 139.214 45.4319C137.936 44.3203 136.337 43.7628 134.417 43.7595C132.582 43.7563 131.024 44.2869 129.742 45.3513C128.503 46.4158 127.732 47.9291 127.43 49.8913L141.126 49.9152ZM191.741 26.3877L191.726 35.1557L179.822 35.1348L179.759 71.2948L168.815 71.2757L168.878 35.1157L156.974 35.0949L156.989 26.3269L191.741 26.3877ZM209.442 35.1866L209.426 44.2746L224.082 44.3002L224.068 52.7482L209.412 52.7226L209.394 62.5786L225.97 62.6076L225.955 71.3756L198.435 71.3274L198.514 26.3995L226.034 26.4476L226.018 35.2156L209.442 35.1866ZM232.523 48.859C232.531 44.4217 233.498 40.4767 235.424 37.0241C237.35 33.5288 240.022 30.8241 243.438 28.9101C246.898 26.9534 250.803 25.9789 255.155 25.9865C260.489 25.9959 265.052 27.4119 268.844 30.2345C272.636 33.0571 275.168 36.9016 276.44 41.7678L264.408 41.7468C263.515 39.8679 262.238 38.4363 260.575 37.452C258.956 36.4679 257.101 35.974 255.01 35.9703C251.639 35.9644 248.907 37.133 246.812 39.476C244.717 41.819 243.666 44.9532 243.659 48.8785C243.652 52.8038 244.692 55.9416 246.779 58.292C248.865 60.6423 251.594 61.8204 254.965 61.8263C257.055 61.8299 258.912 61.3425 260.535 60.364C262.201 59.3856 263.483 57.9585 264.383 56.0827L276.415 56.1038C275.126 60.9655 272.581 64.8011 268.779 67.6104C264.976 70.3771 260.409 71.7558 255.075 71.7465C250.723 71.7389 246.821 70.772 243.368 68.846C239.958 66.8774 237.297 64.1634 235.383 60.704C233.469 57.2447 232.516 53.2963 232.523 48.859Z" fill="white"/>
<path d="M311.995 63.1197L295.227 63.0904L292.526 71.0217L281.07 71.0017L297.404 26.1022L310.076 26.1243L326.254 71.0807L314.67 71.0604L311.995 63.1197ZM309.194 54.6668L303.655 38.2091L298.122 54.6475L309.194 54.6668ZM330.336 53.1678C330.343 49.4985 331.031 46.2783 332.401 43.5074C333.814 40.7365 335.716 38.6065 338.108 37.1174C340.5 35.6282 343.168 34.8862 346.112 34.8914C348.459 34.8955 350.591 35.3898 352.51 36.3745C354.471 37.3593 356.004 38.6847 357.111 40.3506L357.14 23.7746L368.084 23.7938L368.001 71.1537L357.057 71.1345L357.066 66.0146C356.039 67.7194 354.565 69.0822 352.643 70.1028C350.764 71.1235 348.565 71.6317 346.048 71.6273C343.104 71.6221 340.439 70.8708 338.052 69.3733C335.665 67.8331 333.77 65.6752 332.367 62.8994C331.007 60.081 330.33 56.8371 330.336 53.1678ZM357.088 53.2786C357.093 50.5479 356.329 48.3919 354.795 46.8106C353.305 45.2293 351.472 44.4367 349.296 44.4329C347.12 44.4291 345.262 45.2152 343.723 46.7912C342.227 48.3246 341.477 50.4566 341.472 53.1873C341.468 55.9179 342.21 58.0952 343.701 59.7192C345.234 61.3005 347.089 62.0931 349.265 62.0969C351.441 62.1007 353.277 61.3146 354.773 59.7385C356.312 58.1626 357.083 56.0092 357.088 53.2786ZM422.829 35.1535C427.267 35.1612 430.784 36.5114 433.382 39.2039C436.023 41.8966 437.339 45.6322 437.331 50.4109L437.294 71.2748L426.414 71.2558L426.448 51.8638C426.452 49.5598 425.837 47.7881 424.602 46.5486C423.409 45.2665 421.746 44.6236 419.613 44.6199C417.48 44.6162 415.793 45.2532 414.554 46.531C413.357 47.7663 412.756 49.5359 412.752 51.8399L412.718 71.2319L401.838 71.2128L401.872 51.8209C401.876 49.5169 401.261 47.7451 400.026 46.5056C398.833 45.2235 397.17 44.5806 395.037 44.5769C392.904 44.5732 391.217 45.2102 389.978 46.4881C388.781 47.7233 388.18 49.4929 388.176 51.7969L388.142 71.1889L377.198 71.1698L377.261 35.4578L388.205 35.4769L388.197 39.9569C389.309 38.4656 390.762 37.2948 392.555 36.4446C394.349 35.5517 396.376 35.1072 398.638 35.1112C401.325 35.1159 403.714 35.6961 405.802 36.8517C407.934 38.0074 409.595 39.653 410.786 41.7884C412.027 39.8279 413.715 38.2309 415.85 36.9973C417.986 35.7637 420.312 35.1491 422.829 35.1535ZM451.801 31.8761C449.881 31.8728 448.304 31.3154 447.068 30.2039C445.876 29.0498 445.281 27.6407 445.284 25.9767C445.287 24.2701 445.886 22.8631 447.083 21.7559C448.322 20.606 449.902 20.0328 451.822 20.0362C453.699 20.0394 455.234 20.6181 456.427 21.7722C457.662 22.8837 458.279 24.2928 458.276 25.9995C458.273 27.6635 457.651 29.0704 456.412 30.2202C455.216 31.3274 453.679 31.8794 451.801 31.8761ZM457.235 35.5976L457.172 71.3096L446.228 71.2905L446.291 35.5785L457.235 35.5976ZM488.206 35.2678C492.388 35.2751 495.713 36.6463 498.183 39.3813C500.696 42.0736 501.948 45.7878 501.94 50.5238L501.903 71.3878L491.023 71.3688L491.057 51.9768C491.061 49.5875 490.446 47.7304 489.211 46.4056C487.976 45.0807 486.313 44.4165 484.222 44.4128C482.132 44.4092 480.467 45.0676 479.227 46.3881C477.987 47.7086 477.365 49.5635 477.361 51.9529L477.327 71.3448L466.383 71.3257L466.446 35.6138L477.39 35.6329L477.381 40.3689C478.494 38.7922 479.989 37.5574 481.868 36.6647C483.747 35.7293 485.86 35.2637 488.206 35.2678Z" fill="#FFD978"/>
<line y1="84.5" x2="542" y2="84.5" stroke="white"/>
</svg>
