<?xml version="1.0" encoding="utf-8"?>
<!-- Generator: Adobe Illustrator 16.0.3, SVG Export Plug-In . SVG Version: 6.00 Build 0)  -->
<!DOCTYPE svg PUBLIC "-//W3C//DTD SVG 1.1//EN" "http://www.w3.org/Graphics/SVG/1.1/DTD/svg11.dtd">
<svg version="1.1" id="Capa_1" xmlns="http://www.w3.org/2000/svg" xmlns:xlink="http://www.w3.org/1999/xlink" x="0px" y="0px"
	 width="42px" height="53px" viewBox="0 0 42 53" enable-background="new 0 0 42 53" xml:space="preserve">
<rect x="7.875" y="40.688" fill="#303030" width="3.938" height="10.5"/>
<rect x="30.188" y="40.688" fill="#303030" width="3.938" height="10.5"/>
<path fill="#303030" d="M4.938,31.5h32.125c0.553,0,1,0.447,1,1v7.188c0,0.553-0.447,1-1,1H4.938c-0.552,0-1-0.447-1-1V32.5
	C3.938,31.947,4.385,31.5,4.938,31.5z"/>
<rect x="7.875" y="9.188" fill="#303030" width="26.25" height="26.25"/>
<ellipse fill="#303030" cx="21" cy="9.844" rx="13.125" ry="9.844"/>
<path fill="#303030" d="M36.125,18.375H40c1.104,0,2,0.896,2,2v7.813c0,1.104-0.896,2-2,2h-3.875c-1.104,0-2-0.896-2-2v-7.813
	C34.125,19.271,35.021,18.375,36.125,18.375z"/>
<path fill="#303030" d="M2,18.375h3.875c1.104,0,2,0.896,2,2v7.813c0,1.104-0.896,2-2,2H2c-1.104,0-2-0.896-2-2v-7.813
	C0,19.271,0.896,18.375,2,18.375z"/>
<path fill="#303030" d="M7.875,49.875h3.938c0.725,0,1.313,0.588,1.313,1.313l0,0c0,0.725-0.587,1.313-1.313,1.313H7.875
	c-0.725,0-1.313-0.588-1.313-1.313l0,0C6.563,50.463,7.15,49.875,7.875,49.875z"/>
<path fill="#303030" d="M30.188,49.875h3.938c0.725,0,1.313,0.588,1.313,1.313l0,0c0,0.725-0.588,1.313-1.313,1.313h-3.938
	c-0.725,0-1.313-0.588-1.313-1.313l0,0C28.875,50.463,29.463,49.875,30.188,49.875z"/>
</svg>
