<svg width="59" height="58" viewBox="0 0 59 58" fill="none" xmlns="http://www.w3.org/2000/svg">
<circle cx="29.3309" cy="28.9086" r="28.9086" fill="white"/>
<path d="M34.7598 28.0085V17.208L29.3309 11.8077L23.9021 17.208V20.8082H13.0444V46.0094H45.6175V28.0085H34.7598ZM20.2829 42.4092H16.6637V38.8091H20.2829V42.4092ZM20.2829 35.2089H16.6637V31.6087H20.2829V35.2089ZM20.2829 28.0085H16.6637V24.4084H20.2829V28.0085ZM31.1406 42.4092H27.5213V38.8091H31.1406V42.4092ZM31.1406 35.2089H27.5213V31.6087H31.1406V35.2089ZM31.1406 28.0085H27.5213V24.4084H31.1406V28.0085ZM31.1406 20.8082H27.5213V17.208H31.1406V20.8082ZM41.9982 42.4092H38.379V38.8091H41.9982V42.4092ZM41.9982 35.2089H38.379V31.6087H41.9982V35.2089Z" fill="black"/>
</svg>
